<svg width="28" height="28" viewBox="0 0 28 28" fill="none" xmlns="http://www.w3.org/2000/svg">
<path d="M14.0003 0C10.1949 0 9.72064 0.018375 8.23139 0.081375C6.73601 0.154875 5.72451 0.38675 4.83201 0.73325C3.89792 1.08589 3.05197 1.63801 2.35314 2.35113C1.63804 3.04832 1.08561 3.89474 0.735264 4.83C0.388764 5.7225 0.156889 6.734 0.0833892 8.22937C0.0160142 9.7195 0.00201416 10.1929 0.00201416 13.9983C0.00201416 17.8036 0.0203892 18.2779 0.0833892 19.7671C0.156889 21.2581 0.388764 22.274 0.735264 23.1665C1.08791 24.1006 1.64003 24.9465 2.35314 25.6454C3.05034 26.3605 3.89676 26.9129 4.83201 27.2633C5.72451 27.6054 6.74039 27.8416 8.23139 27.9151C9.72151 27.9825 10.1949 27.9965 14.0003 27.9965C17.8056 27.9965 18.2799 27.9781 19.7691 27.9151C21.2601 27.8416 22.276 27.6045 23.1685 27.2633C24.1026 26.9106 24.9486 26.3585 25.6474 25.6454C26.3634 24.9489 26.916 24.1023 27.2653 23.1665C27.6074 22.274 27.8436 21.2581 27.9171 19.7671C27.9845 18.277 27.9985 17.8036 27.9985 13.9983C27.9985 10.1929 27.9801 9.71863 27.9171 8.22937C27.8436 6.73837 27.6065 5.71725 27.2653 4.83C26.9126 3.8959 26.3605 3.04996 25.6474 2.35113C24.951 1.6351 24.1043 1.08253 23.1685 0.73325C22.276 0.38675 21.2601 0.154875 19.7691 0.081375C18.279 0.014 17.8056 0 14.0003 0ZM14.0003 2.52C17.7374 2.52 18.1836 2.53838 19.6606 2.60138C21.023 2.66525 21.765 2.89275 22.2576 3.08525C22.8667 3.31006 23.4179 3.66787 23.8711 4.13263C24.3351 4.58397 24.6916 5.13393 24.9141 5.74175C25.1066 6.23438 25.3341 6.97637 25.398 8.33875C25.461 9.81575 25.4794 10.2629 25.4794 13.9991C25.4794 17.7354 25.461 18.1825 25.3928 19.6595C25.3193 21.0219 25.0918 21.7639 24.9001 22.2565C24.635 22.9136 24.3393 23.373 23.851 23.87C23.3962 24.3318 22.8454 24.6879 22.2375 24.913C21.751 25.1055 20.9985 25.333 19.6309 25.3969C18.146 25.4599 17.7085 25.4783 13.9618 25.4783C10.215 25.4783 9.77839 25.4599 8.29176 25.3916C6.92939 25.3181 6.17776 25.0906 5.68514 24.899C5.02014 24.6339 4.56426 24.3381 4.07601 23.8499C3.58339 23.3573 3.27014 22.8883 3.02864 22.2364C2.83264 21.7499 2.60864 20.9974 2.53601 19.6297C2.48614 18.1624 2.46251 17.7074 2.46251 13.9781C2.46251 10.2506 2.48614 9.79475 2.53601 8.309C2.60864 6.94138 2.83264 6.19063 3.02864 5.70238C3.27014 5.0365 3.58426 4.5815 4.07601 4.08887C4.56339 3.6015 5.02014 3.2865 5.68514 3.03975C6.17776 2.84812 6.91101 2.62063 8.27864 2.55238C9.76351 2.499 10.201 2.47975 13.9425 2.47975L14.0003 2.52ZM14.0003 6.81363C13.0564 6.81328 12.1218 6.99893 11.2498 7.35995C10.3777 7.72098 9.58535 8.25031 8.91796 8.9177C8.25058 9.58508 7.72124 10.3774 7.36022 11.2495C6.99919 12.1215 6.81354 13.0562 6.81389 14C6.81354 14.9438 6.99919 15.8785 7.36022 16.7505C7.72124 17.6226 8.25058 18.4149 8.91796 19.0823C9.58535 19.7497 10.3777 20.279 11.2498 20.64C12.1218 21.0011 13.0564 21.1867 14.0003 21.1864C14.9441 21.1867 15.8787 21.0011 16.7508 20.64C17.6228 20.279 18.4152 19.7497 19.0826 19.0823C19.75 18.4149 20.2793 17.6226 20.6403 16.7505C21.0013 15.8785 21.187 14.9438 21.1866 14C21.187 13.0562 21.0013 12.1215 20.6403 11.2495C20.2793 10.3774 19.75 9.58508 19.0826 8.9177C18.4152 8.25031 17.6228 7.72098 16.7508 7.35995C15.8787 6.99893 14.9441 6.81328 14.0003 6.81363ZM14.0003 18.6664C11.4208 18.6664 9.33389 16.5795 9.33389 14C9.33389 11.4205 11.4208 9.33362 14.0003 9.33362C16.5798 9.33362 18.6666 11.4205 18.6666 14C18.6666 16.5795 16.5798 18.6664 14.0003 18.6664ZM23.1563 6.52663C23.1558 6.97258 22.9783 7.40011 22.6628 7.71529C22.3473 8.03046 21.9196 8.2075 21.4736 8.2075C21.2531 8.2075 21.0348 8.16407 20.8311 8.07968C20.6273 7.9953 20.4422 7.87162 20.2863 7.7157C20.1304 7.55977 20.0067 7.37467 19.9223 7.17095C19.8379 6.96723 19.7945 6.74888 19.7945 6.52838C19.7945 6.30787 19.8379 6.08952 19.9223 5.8858C20.0067 5.68208 20.1304 5.49698 20.2863 5.34105C20.4422 5.18513 20.6273 5.06145 20.8311 4.97707C21.0348 4.89268 21.2531 4.84925 21.4736 4.84925C22.3985 4.84925 23.1563 5.60175 23.1563 6.52663Z" fill="white"/>
</svg>
