<svg width="57" height="27" viewBox="0 0 57 27" fill="none" xmlns="http://www.w3.org/2000/svg">
<path d="M28.5015 23.3624L19.3678 10.4572V26.6914H20.5942V14.2955L28.5015 25.4689V25.5827L36.4089 14.4094V26.8052H37.6353V10.5711L28.5015 23.4763V23.3624Z" fill="white"/>
<path d="M56.338 1.3094V0.110864H40.3641V0.128843L40.361 0.125846L28.5015 16.5398V16.4259L16.6421 0.0119854L16.639 0.0149817L16.6359 0.017978V0H0.661972V1.19854H15.4095V12.5457H4.56505V13.7442H15.4095V25.6906H0.661972V26.8891H16.6359V2.08845H16.639L28.5015 18.5054V18.6192L40.3641 2.20231V2.19931V27H56.338V25.8015H41.5905V13.8551H52.4349V12.6565H41.5905V1.3094H56.338Z" fill="white"/>
</svg>
